<svg xmlns="http://www.w3.org/2000/svg" width="34.045" height="34" viewBox="0 0 34.045 34">
  <g id="Icon" transform="translate(-798 -544)">
    <path id="Vector" d="M0,7.862l2.15,2.15A3.636,3.636,0,0,1,3.27,8a3.853,3.853,0,0,1,5.2-.045l.269.269a3.716,3.716,0,0,1,.941,2.419,1.68,1.68,0,0,1-.045.493A3.734,3.734,0,0,1,6.585,14.4l2.15,2.15,2.6-2.6c.045-.045.045-.045.09-.045h.224a.3.3,0,0,1,.179.269,3.085,3.085,0,0,0,.941,2.195,3.183,3.183,0,0,0,2.285.941H15.1a4.413,4.413,0,0,0,.762-.09,2.95,2.95,0,0,0,1.523-.9,3.3,3.3,0,0,0,.762-2.912,3.416,3.416,0,0,0-.762-1.433,3.132,3.132,0,0,0-.762-.582,5.983,5.983,0,0,0-.806-.314c-.134-.045-.269-.045-.4-.09H15.1a.3.3,0,0,1-.269-.179.393.393,0,0,1,.045-.314l2.6-2.6L10.213.6A2.109,2.109,0,0,0,7.257.6Z" transform="translate(806.289 544)" fill="#fff"/>
    <path id="Vector-2" data-name="Vector" d="M16.754,7.257,9.5,0,7.347,2.15A3.859,3.859,0,0,1,9.362,3.225a3.853,3.853,0,0,1,.045,5.2A3.672,3.672,0,0,1,6.719,9.631a3.523,3.523,0,0,1-2.733-1.12A3.663,3.663,0,0,1,2.957,6.54L.762,8.735l2.6,2.6a.276.276,0,0,1,.045.314.3.3,0,0,1-.269.179,3.085,3.085,0,0,0-2.195.941A3.212,3.212,0,0,0,0,15.1a3.1,3.1,0,0,0,1.03,2.285,1.772,1.772,0,0,0,.672.448,3.277,3.277,0,0,0,3.718-.493,3.053,3.053,0,0,0,.986-2.24.3.3,0,0,1,.179-.269.393.393,0,0,1,.314.045l2.6,2.6,7.257-7.257a2.108,2.108,0,0,0,.627-1.478A2.031,2.031,0,0,0,16.754,7.257Z" transform="translate(814.664 552.265)" fill="#fff"/>
    <path id="Vector-3" data-name="Vector" d="M16.063,7.3a3.636,3.636,0,0,1-1.12,2.016,3.853,3.853,0,0,1-5.2.045A3.672,3.672,0,0,1,8.538,6.675a4.017,4.017,0,0,1,.627-2.15,3.084,3.084,0,0,1,.493-.582,3.663,3.663,0,0,1,1.971-1.03L9.478.717l-2.6,2.6a.236.236,0,0,1-.314.09.3.3,0,0,1-.179-.269A3.085,3.085,0,0,0,5.447.941,3.212,3.212,0,0,0,3.117,0H2.8A3.326,3.326,0,0,0,.833.986a3.3,3.3,0,0,0-.627,3.36c0,.045.045.09.045.134s.045.09.045.134a2.943,2.943,0,0,0,.538.762,3.053,3.053,0,0,0,2.24.986.3.3,0,0,1,.269.179.393.393,0,0,1-.045.314L.7,9.452l7.257,7.257a2.109,2.109,0,0,0,2.957,0l7.257-7.257Z" transform="translate(805.544 560.686)" fill="#fff"/>
    <path id="Vector-4" data-name="Vector" d="M.627,10.913,7.884,18.17l2.15-2.15A3.636,3.636,0,0,1,8.018,14.9a3.853,3.853,0,0,1-.045-5.2,3.736,3.736,0,0,1,5.42-.09,3.663,3.663,0,0,1,1.03,1.971l2.15-2.15-2.6-2.6a.276.276,0,0,1-.045-.314.3.3,0,0,1,.269-.179A3.085,3.085,0,0,0,16.4,5.4c.09-.09.134-.179.224-.224a3.125,3.125,0,0,0,.717-2.061A3.1,3.1,0,0,0,16.306.834,3.183,3.183,0,0,0,11.96.879a3.053,3.053,0,0,0-.986,2.24.3.3,0,0,1-.179.269.393.393,0,0,1-.314-.045l-2.6-2.6L.627,7.957a2.056,2.056,0,0,0,0,2.957Z" transform="translate(798 551.565)" fill="#fff"/>
  </g>
</svg>
