<svg xmlns="http://www.w3.org/2000/svg" width="34" height="27.026" viewBox="0 0 34 27.026">
  <g id="Icon" transform="translate(-232 -547.472)">
    <path id="Vector" d="M34,10.462v9.59a2.618,2.618,0,0,1-2.615,2.615h-.872v3.487a.872.872,0,0,1-1.43.67l-4.988-4.157h-8.4a2.618,2.618,0,0,1-2.615-2.615v-.872h8.718a4.364,4.364,0,0,0,4.359-4.359V7.846h5.231A2.618,2.618,0,0,1,34,10.462ZM21.795,17.436H9.991l-4.97,5.8a.872.872,0,0,1-1.533-.567V17.436H2.615A2.618,2.618,0,0,1,0,14.821V2.615A2.618,2.618,0,0,1,2.615,0H21.795A2.618,2.618,0,0,1,24.41,2.615V14.821a2.618,2.618,0,0,1-2.615,2.615Zm-2.615-6.974a.872.872,0,0,0-.872-.872H6.1a.872.872,0,1,0,0,1.744H18.308a.872.872,0,0,0,.872-.872Zm0-4.359a.872.872,0,0,0-.872-.872H6.1a.872.872,0,1,0,0,1.744H18.308a.872.872,0,0,0,.872-.872Z" transform="translate(232 547.472)" fill="#fff"/>
  </g>
</svg>
