<svg xmlns="http://www.w3.org/2000/svg" width="34" height="20.398" viewBox="0 0 34 20.398">
  <g id="Group" transform="translate(-798 -325)">
    <g id="Group_1000000785" data-name="Group 1000000785">
      <path id="Vector" d="M4.787,9.573A4.787,4.787,0,1,0,0,4.787,4.787,4.787,0,0,0,4.787,9.573Z" transform="translate(810.407 326.177)" fill="#fff"/>
      <path id="Vector-2" data-name="Vector" d="M12.9.131A6,6,0,0,1,8.744,1.789,6,6,0,0,1,4.589.131,4.929,4.929,0,0,0,4.038.017a1.855,1.855,0,0,0-.516,0,2.579,2.579,0,0,0-.486.137,3.207,3.207,0,0,0-.623.286,2.926,2.926,0,0,0-.835.748,6.552,6.552,0,0,0-.81,1.521,10.742,10.742,0,0,0-.6,2.044A12.365,12.365,0,0,0,.007,6.638a6.917,6.917,0,0,0,.037,1.2,2.227,2.227,0,0,0,.374.984,3.283,3.283,0,0,0,.984.9,3.821,3.821,0,0,0,1.533.511,20.25,20.25,0,0,0,2.467.087h6.68a20.25,20.25,0,0,0,2.467-.087,3.821,3.821,0,0,0,1.533-.511,3.283,3.283,0,0,0,.984-.9,2.227,2.227,0,0,0,.374-.984,6.917,6.917,0,0,0,.037-1.2,12.365,12.365,0,0,0-.162-1.882,10.742,10.742,0,0,0-.6-2.044,6.552,6.552,0,0,0-.81-1.521,2.926,2.926,0,0,0-.835-.748,3.207,3.207,0,0,0-.623-.286,2.579,2.579,0,0,0-.486-.137,1.855,1.855,0,0,0-.516,0A4.929,4.929,0,0,0,12.9.131Z" transform="translate(806.449 335.083)" fill="#fff"/>
      <path id="Vector-3" data-name="Vector" d="M.812,8.322A4.787,4.787,0,1,0,0,2.217,4.776,4.776,0,0,1,1.559,5.752,4.765,4.765,0,0,1,.812,8.322Z" transform="translate(819.481 325)" fill="#fff"/>
      <path id="Vector-4" data-name="Vector" d="M.812-8.322A4.77,4.77,0,0,1,4.038-9.573,4.786,4.786,0,0,1,8.823-4.787,4.786,4.786,0,0,1,4.038,0,4.781,4.781,0,0,1,0-2.217,4.776,4.776,0,0,0,1.559-5.752,4.765,4.765,0,0,0,.812-8.322Z" transform="translate(810.519 325) rotate(180)" fill="#fff"/>
      <path id="Vector-5" data-name="Vector" d="M4.012.131A6,6,0,0,1,0,1.787l.172.206A6.551,6.551,0,0,1,.983,3.514a10.739,10.739,0,0,1,.6,2.044A12.361,12.361,0,0,1,1.743,7.44a6.914,6.914,0,0,1-.037,1.2,2.227,2.227,0,0,1-.374.984,3.106,3.106,0,0,1-.683.693H3.2a20.266,20.266,0,0,0,2.468-.087A3.823,3.823,0,0,0,7.2,9.717a3.284,3.284,0,0,0,.985-.9,2.227,2.227,0,0,0,.374-.984,6.914,6.914,0,0,0,.037-1.2,12.361,12.361,0,0,0-.162-1.882,10.739,10.739,0,0,0-.6-2.044,6.551,6.551,0,0,0-.811-1.521A2.927,2.927,0,0,0,6.189.443,3.209,3.209,0,0,0,5.566.156,2.58,2.58,0,0,0,5.08.019a1.856,1.856,0,0,0-.517,0A4.932,4.932,0,0,0,4.012.131Z" transform="translate(823.398 334.083)" fill="#fff"/>
      <path id="Vector-6" data-name="Vector" d="M4.012-.131A6,6,0,0,0,0-1.787l.172-.206A6.551,6.551,0,0,0,.983-3.514a10.739,10.739,0,0,0,.6-2.044A12.361,12.361,0,0,0,1.743-7.44a6.914,6.914,0,0,0-.037-1.2,2.227,2.227,0,0,0-.374-.984,3.106,3.106,0,0,0-.683-.693H3.2a20.266,20.266,0,0,1,2.468.087A3.823,3.823,0,0,1,7.2-9.717a3.284,3.284,0,0,1,.985.9,2.227,2.227,0,0,1,.374.984,6.914,6.914,0,0,1,.037,1.2,12.361,12.361,0,0,1-.162,1.882,10.739,10.739,0,0,1-.6,2.044,6.551,6.551,0,0,1-.811,1.521,2.927,2.927,0,0,1-.835.748,3.209,3.209,0,0,1-.624.286,2.58,2.58,0,0,1-.486.137,1.856,1.856,0,0,1-.517,0A4.932,4.932,0,0,1,4.012-.131Z" transform="translate(806.602 334.083) rotate(180)" fill="#fff"/>
    </g>
  </g>
</svg>
