<svg xmlns="http://www.w3.org/2000/svg" width="34" height="34.156" viewBox="0 0 34 34.156">
  <g id="Icon" transform="translate(-798 -770)">
    <path id="Vector" d="M3.034,0A3.037,3.037,0,0,0,0,3.034V5.376H6.068V3.034A3.038,3.038,0,0,0,3.034,0ZM29.085,27.574V4a4,4,0,0,0-4-4H6.235A4.4,4.4,0,0,1,7.45,3.034v28a3.092,3.092,0,0,0,2.881,3.118,3.037,3.037,0,0,0,3.187-3.03V27.576H29.085ZM13.141,22.5H23.81v1.843H13.141Zm0-4.532H23.81v1.843H13.141Zm0-4.532H23.81v1.843H13.141Zm0-4.532H23.81v1.843H13.141Zm0-4.532H23.81V6.221H13.141Zm1.76,24.58v2.163a4.4,4.4,0,0,1-1.215,3.034H30.966A3.037,3.037,0,0,0,34,31.122V28.959Z" transform="translate(798 770)" fill="#fff"/>
  </g>
</svg>
